<?xml version="1.0" encoding="utf-8"?>
<!-- Generator: Adobe Illustrator 24.0.0, SVG Export Plug-In . SVG Version: 6.00 Build 0)  -->
<svg version="1.1" xmlns="http://www.w3.org/2000/svg" xmlns:xlink="http://www.w3.org/1999/xlink" x="0px" y="0px"
	 viewBox="0 0 2633.89 1668.89" style="enable-background:new 0 0 2633.89 1668.89;" xml:space="preserve">
<style type="text/css">
	.st0{fill:#C7B299;}
	.st1{fill:#998675;}
	.st2{fill:#736357;}
	.st3{fill:none;stroke:#000000;stroke-miterlimit:10;}
	.st4{fill:#534741;}
	.st5{clip-path:url(#SVGID_2_);}
	.st6{fill:url(#SVGID_3_);}
</style>
<g id="Grid">
	<g>
	</g>
	<g>
		<polygon class="st0" points="1402.9,942.89 1478.89,899.47 1553.89,942.89 1478.89,986.31 		"/>
		<path d="M1478.89,900.04l74.01,42.85l-74.01,42.85l-74.98-42.85L1478.89,900.04 M1478.89,898.89l-77,44l77,44l76-44
			L1478.89,898.89L1478.89,898.89z"/>
	</g>
	<g>
		<polygon class="st1" points="1402.39,972.6 1402.66,943.64 1478.39,987.18 1478.39,1016.03 		"/>
		<path d="M1403.15,944.5l74.74,42.97v27.7l-74.99-42.85L1403.15,944.5 M1402.17,942.78l-0.28,30.11l77,44v-30L1402.17,942.78
			L1402.17,942.78z"/>
	</g>
	<g>
		<polygon class="st2" points="1479.39,987.18 1554.82,943.43 1554.39,972.6 1479.39,1016.02 		"/>
		<path d="M1554.31,944.31l-0.41,28l-74.01,42.85v-27.69L1554.31,944.31 M1555.33,942.56l-76.44,44.33v30l76-44L1555.33,942.56
			L1555.33,942.56z"/>
	</g>
	<g>
		<polygon class="st1" points="1402.39,1030.6 1402.66,972.55 1478.39,1016.09 1478.39,1075.02 		"/>
		<path d="M1403.16,973.41l74.73,42.97v57.77l-75-43.83L1403.16,973.41 M1402.17,971.69l-0.28,59.2l77,45v-60.09L1402.17,971.69
			L1402.17,971.69z"/>
	</g>
	<g>
		<polygon class="st2" points="1479.39,1016.08 1554.83,972.34 1554.39,1030.6 1479.39,1075.01 		"/>
		<path d="M1554.32,973.21l-0.43,57.11l-74,43.82v-57.76L1554.32,973.21 M1555.33,971.46l-76.44,44.33v60.09l76-45L1555.33,971.46
			L1555.33,971.46z"/>
	</g>
	<g>
		<polygon class="st1" points="1072.39,1046.07 1072.66,988.01 1148.39,1031.55 1148.39,1090.48 		"/>
		<path d="M1073.16,988.87l74.73,42.97v57.77l-75-43.83L1073.16,988.87 M1072.17,987.15l-0.28,59.2l77,45v-60.09L1072.17,987.15
			L1072.17,987.15z"/>
	</g>
	<g>
		<polygon class="st2" points="1149.39,1031.55 1224.83,987.8 1224.39,1046.07 1149.39,1090.47 		"/>
		<path d="M1224.32,988.67l-0.43,57.11l-74,43.82v-57.76L1224.32,988.67 M1225.33,986.93l-76.44,44.33v60.09l76-45L1225.33,986.93
			L1225.33,986.93z"/>
	</g>
	<g>
		<polygon class="st0" points="1073.17,986.85 1149.17,943.43 1224.17,986.85 1149.17,1030.27 		"/>
		<path d="M1149.16,944.01l74.01,42.85l-74.01,42.85l-74.98-42.85L1149.16,944.01 M1149.17,942.85l-77,44l77,44l76-44
			L1149.17,942.85L1149.17,942.85z"/>
	</g>
	<g>
		<polygon class="st0" points="1149.17,942.85 1225.17,899.43 1300.17,942.85 1225.17,986.27 		"/>
		<path d="M1225.16,900.01l74.01,42.85l-74.01,42.85l-74.98-42.85L1225.16,900.01 M1225.17,898.85l-77,44l77,44l76-44
			L1225.17,898.85L1225.17,898.85z"/>
	</g>
	<g>
		<polygon class="st2" points="1225.39,986.94 1300.82,943.19 1300.39,972.36 1225.39,1015.78 		"/>
		<path d="M1300.31,944.07l-0.41,28l-74.01,42.85v-27.69L1300.31,944.07 M1301.33,942.31l-76.44,44.33v30l76-44L1301.33,942.31
			L1301.33,942.31z"/>
	</g>
	<g>
		<polygon class="st2" points="1096.92,986.89 1147.88,958.46 1196.89,986.89 1147.88,1015.31 		"/>
		<path d="M1147.88,959.04l48.02,27.85l-48.02,27.85l-49.94-27.85L1147.88,959.04 M1147.89,957.89l-52,29l52,29l50-29
			L1147.89,957.89L1147.89,957.89z"/>
	</g>
	<g>
		<polygon class="st2" points="1174.69,942.29 1225.88,913.47 1274.68,942.29 1225.66,970.72 		"/>
		<path d="M1225.88,914.04l47.81,28.25l-48.03,27.86l-49.94-27.85L1225.88,914.04 M1225.89,912.89l-52.22,29.41l52,29l50-29
			L1225.89,912.89L1225.89,912.89z"/>
	</g>
	<line class="st3" x1="1147.39" y1="1014.89" x2="1147.39" y2="958.89"/>
	<g>
		<path class="st3" d="M1225.39,970.89"/>
	</g>
	<g>
		<path class="st3" d="M1225.39,913.89"/>
	</g>
	<g>
		<polygon class="st4" points="1096.92,986.89 1147.39,958.74 1147.39,1015.04 		"/>
		<path d="M1146.89,959.59v27.3v27.3l-48.95-27.3L1146.89,959.59 M1147.89,957.89l-52,29l52,29v-29V957.89L1147.89,957.89z"/>
	</g>
	<g>
		<defs>
			<polygon id="SVGID_1_" points="1148.39,1016.39 1197.89,986.89 1198.89,825.89 1096.89,825.89 1096.89,987.89 			"/>
		</defs>
		<clipPath id="SVGID_2_">
			<use xlink:href="#SVGID_1_"  style="overflow:visible;"/>
		</clipPath>
		<g class="st5">
			<radialGradient id="SVGID_3_" cx="1147.7789" cy="1012.3517" r="145.4961" gradientUnits="userSpaceOnUse">
				<stop  offset="0" style="stop-color:#FFFF00"/>
				<stop  offset="0.995" style="stop-color:#FFFFFF;stop-opacity:0"/>
			</radialGradient>
			<polygon class="st6" points="1108.67,1157.81 1002.25,973.49 1186.89,866.89 1293.31,1051.21 			"/>
		</g>
	</g>
</g>
<g id="Layer_2">
</g>
</svg>
